<?xml version="1.0" encoding="UTF-8" standalone="no"?>
<!-- Created with Inkscape (http://www.inkscape.org/) -->

<svg
   xmlns:dc="http://purl.org/dc/elements/1.1/"
   xmlns:cc="http://creativecommons.org/ns#"
   xmlns:rdf="http://www.w3.org/1999/02/22-rdf-syntax-ns#"
   xmlns:svg="http://www.w3.org/2000/svg"
   xmlns="http://www.w3.org/2000/svg"
   xmlns:inkscape="http://www.inkscape.org/namespaces/inkscape"
   version="1.1"
   width="375"
   height="375"
   id="svg2"
   xml:space="preserve"><metadata
     id="metadata8"><rdf:RDF><cc:Work
         rdf:about=""><dc:format>image/svg+xml</dc:format><dc:type
           rdf:resource="http://purl.org/dc/dcmitype/StillImage" /></cc:Work></rdf:RDF></metadata><defs
     id="defs6" /><g
     transform="matrix(1.25,0,0,-1.25,0,375)"
     id="g10"><g
       transform="scale(0.1,0.1)"
       id="g12"><path
         d="m 0,0 3000,0 0,3000 L 0,3000 0,0 z"
         inkscape:connector-curvature="0"
         id="path14"
         style="fill:#ffffff;fill-opacity:1;fill-rule:nonzero;stroke:none" /><path
         d="m 1364.2,2953.6 c 310,29.8 629.3,-42.3 895.3,-204.6 250.7,-151 453.7,-379.3 574.8,-645.7 128,-278.4 162,-597.5 101.9,-897.5 C 2876.3,904.898 2717.1,625.199 2490.3,418.602 2263.4,209.102 1968,75.6016 1660.8,43 1462.6,24.5 1260.1,39.3984 1069.8,99.8008 744.398,199.602 457.301,418 273.5,704.5 118.898,942.398 36.6992,1226.6 40.6016,1510.4 c 0.7968,324.5 116.0004,646.9 319.2964,899.6 243.301,306.9 614,508.4 1004.302,543.6"
         inkscape:connector-curvature="0"
         id="path16"
         style="fill:#988430;fill-opacity:1;fill-rule:nonzero;stroke:none" /><path
         d="m 1473.9,2914.7 c 260,4.5 521.6,-61.8 745.8,-194.3 241.8,-142 440.7,-357.1 561,-610.6 129.9,-264.4 168.2,-570.6 117.7,-860.1 C 2832.2,861.801 2593.7,507.898 2260.2,299.398 2029.3,151.398 1753.6,74.6992 1479.6,80.6992 1212,82.5 946.5,165.898 723.5,313.301 495.199,463.898 310.301,680.801 202.602,932.602 78.3984,1216 52,1540.7 127.602,1840.7 c 73.796,303.8 254.699,578.6 500.199,771.4 238.898,189.9 541.299,296.4 846.099,302.6"
         inkscape:connector-curvature="0"
         id="path18"
         style="fill:#7a6a2a;fill-opacity:1;fill-rule:nonzero;stroke:none" /><path
         d="m 935.398,2763.9 c 244.202,110.7 521.102,145.8 785.702,104 276.3,-43 537.9,-173.2 739.7,-366.7 246.9,-234 402.6,-561.5 426,-901 30.8,-387.1 -111.1,-784.2 -382.1,-1062.501 -3.8,80.699 -5,161.5 -6.5,242.301 -0.6,59.898 -13.9,118.5 -19,177.898 1.1,20.801 3.5,41.5 4.2,62.202 2.9,56.1 -26.8,108.4 -19.2,164.9 7.4,79.4 -34.2,151.4 -54.8,225.8 -20.5,52.3 -19.2,109.8 -39.1,162.2 -14.3,202.4 -92.7,406.7 -246.3,544.2 5,7 14.8,21.2 19.8,28.3 6.1,-13.2 13,-25.9 19.9,-38.6 35.7,40.4 41.2,96 51.8,146.6 19.9,90.2 6.1,183.4 -9.3,273.1 -11.9,46 -21.4,99.3 -59.9,131.1 -41.1,24.2 -112.3,24.6 -136.2,-23.4 -0.8,-2.8 -2.4,-8.4 -3.2,-11.1 -17.9,-31.1 -42.7,-58 -73.8,-76.1 -55.2,-34 -85.3,-98.5 -144.3,-128.3 -36.8,-12 -74.2,8.4 -111.7,4.2 -70.6,-7.3 -142.3,-11 -210.9,-30.7 -64.9,10.3 -130.1,20.6 -194.6,33.6 0.2,4.7 0.7,14 1,18.7 -29.5,28.6 -56.4,61.2 -67.1,101.7 -19.7,75.4 -66.2,148 -136.3,185 -9.9,3.9 -19.8,7.7 -29.7,11.3 -6.2,-6.8 -12.2,-13.7 -18.1,-20.6 -2.3,-5.3 -6.9,-15.9 -9.2,-21.1 -15.598,-34.9 -12.1,-73.8 -13.2,-111 -1,-96.1 -11,-194.5 -51.602,-282.8 -65.398,0.2 -130.699,0.7 -196,-0.1 -13,-29.4 -8.398,-62 -9.097,-93.1 -105.102,-97.3 -147.102,-240.7 -166.699,-378.2 -0.102,-10.6 0.296,-21.3 1.199,-31.9 0.199,-4.2 0.5,-12.6 0.699,-16.7 -46.199,-60.9 -54.301,-140.5 -66.199,-213.6 16.898,1 33.801,2 50.801,2.7 -15.602,-1.7 -31.204,-3.2 -46.704,-4.7 -3,-16.7 -5.398,-33.4 -7.296,-50.2 15.199,5.6 30.296,11.4 45.5,17 l 8.199,-0.4 c -18.102,-7.4 -35.801,-16 -53.403,-24.7 0.403,-10.6 1.204,-31.9 1.5,-42.5 20.602,10.6 41.403,20.6 62,31.2 l -7.5,-8.4 c -17.5,-11.4 -39.898,-17.5 -53.699,-33.7 0.403,-38.4 5.801,-76.6 11,-114.6 13.5,-86.4 43.801,-170.5 88.102,-245.9 -1.301,-55.1 -13.199,-110.601 -45.699,-156.101 9.097,-17.199 24.296,-33.097 25.199,-53.301 -5.699,-34.296 -33.301,-63.296 -27.5,-99.699 7.398,-88.301 -25,-172.597 -63.301,-250.301 -198.699,206.5 -330,476.702 -369.699,760.602 -37.6994,265 1.801,541.1 116.097,783.5 138.801,299.6 388.801,545.7 690.5,679.9"
         inkscape:connector-curvature="0"
         id="path20"
         style="fill:#ba9f33;fill-opacity:1;fill-rule:nonzero;stroke:none" /><path
         d="m 1021.4,2722 c 5.9,6.9 11.9,13.8 18.1,20.6 9.9,-3.6 19.8,-7.4 29.7,-11.3 16.7,-52.5 42.6,-105 37.3,-161.6 -1.9,-37.8 -10.1,-78.4 8.9,-113.6 8.2,-20 28.1,-30.4 45,-41.9 -10.2,-7.9 -20.3,-15.8 -31,-22.9 -44.2,-17.6 -79.4,-50.4 -112.5,-83.5 -12.8,0 -25.599,-0.1 -38.4,-0.1 70,84.1 100.9,194.9 100.6,303.1 1.4,44.9 -33,77.7 -57.7,111.2"
         inkscape:connector-curvature="0"
         id="path22"
         style="fill:#c79c3b;fill-opacity:1;fill-rule:nonzero;stroke:none" /><path
         d="m 1069.2,2731.3 c 70.1,-37 116.6,-109.6 136.3,-185 10.7,-40.5 37.6,-73.1 67.1,-101.7 -0.3,-4.7 -0.8,-14 -1,-18.7 -36.6,12 -81.6,19.6 -111.2,-11.7 -16.9,11.5 -36.8,21.9 -45,41.9 -19,35.2 -10.8,75.8 -8.9,113.6 5.3,56.6 -20.6,109.1 -37.3,161.6"
         inkscape:connector-curvature="0"
         id="path24"
         style="fill:#b58634;fill-opacity:1;fill-rule:nonzero;stroke:none" /><path
         d="m 1021.4,2722 c 24.7,-33.5 59.1,-66.3 57.7,-111.2 0.3,-108.2 -30.6,-219 -100.6,-303.1 -4.801,-0.1 -14.301,-0.3 -19.102,-0.3 30.301,46.4 60.402,96.7 63.602,153.6 5.7,80.3 -19,159.4 -10.8,239.9 2.3,5.2 6.9,15.8 9.2,21.1"
         inkscape:connector-curvature="0"
         id="path26"
         style="fill:#dfc068;fill-opacity:1;fill-rule:nonzero;stroke:none" /><path
         d="m 999,2589.9 c 1.1,37.2 -2.398,76.1 13.2,111 -8.2,-80.5 16.5,-159.6 10.8,-239.9 -3.2,-56.9 -33.301,-107.2 -63.602,-153.6 l -12,-0.3 C 988,2395.4 998,2493.8 999,2589.9"
         inkscape:connector-curvature="0"
         id="path28"
         style="fill:#a78f33;fill-opacity:1;fill-rule:nonzero;stroke:none" /><path
         d="m 2010.1,2634.3 c 23.9,48 95.1,47.6 136.2,23.4 38.5,-31.8 48,-85.1 59.9,-131.1 15.4,-89.7 29.2,-182.9 9.3,-273.1 -10.6,-50.6 -16.1,-106.2 -51.8,-146.6 -6.9,12.7 -13.8,25.4 -19.9,38.6 -6.8,19.8 -12.5,40 -18.9,60 24.6,54.9 37.1,114.9 43.6,174.5 5.9,53.2 -29.5,97 -64.8,132 -18.7,49.4 -56.6,86.2 -93.6,122.3"
         inkscape:connector-curvature="0"
         id="path30"
         style="fill:#a17c34;fill-opacity:1;fill-rule:nonzero;stroke:none" /><path
         d="m 2006.9,2623.2 c 0.8,2.7 2.4,8.3 3.2,11.1 37,-36.1 74.9,-72.9 93.6,-122.3 -1,-14.5 -4.3,-30.3 -19.5,-35.9 -43.3,-21.9 -91.8,-37.8 -123.5,-76.7 -21.7,-27.5 -64,-43.2 -67.4,-81.5 4.6,-3.4 13.8,-10.1 18.4,-13.5 -4.3,-5.6 -12.8,-16.8 -17.1,-22.4 5.5,-5.7 11.1,-11.3 16.7,-16.9 23.1,24.1 58.6,26.2 88.5,36.8 -4.7,-11.6 -9.4,-23.3 -14.1,-35 12.7,2.8 25.6,5.6 38.4,8.2 -15.8,-18.1 -33.5,-34.5 -52.1,-49.8 -2.1,1.2 -6.3,3.4 -8.4,4.5 -22.8,11.3 -45,26.5 -71.2,27.5 -1.3,3.9 -3.8,11.5 -5.1,15.4 -14.4,0.8 -28.7,3.5 -42.3,8.1 3.8,9.5 11.4,28.4 15.2,37.8 -7.9,-3.8 -23.8,-11.5 -31.7,-15.3 21.5,35.3 42.4,71 63.4,106.6 1.5,2.6 4.5,7.8 6,10.4 28.9,53.6 71.4,98.3 100.5,151.6 10.2,15.4 9.8,33.7 8.5,51.3"
         inkscape:connector-curvature="0"
         id="path32"
         style="fill:#b89844;fill-opacity:1;fill-rule:nonzero;stroke:none" /><path
         d="m 2006.9,2623.2 c 1.3,-17.6 1.7,-35.9 -8.5,-51.3 -29.1,-53.3 -71.6,-98 -100.5,-151.6 -0.5,45 5.4,91 35.2,126.8 31.1,18.1 55.9,45 73.8,76.1"
         inkscape:connector-curvature="0"
         id="path34"
         style="fill:#cba94c;fill-opacity:1;fill-rule:nonzero;stroke:none" /><path
         d="m 1788.8,2418.8 c 59,29.8 89.1,94.3 144.3,128.3 -29.8,-35.8 -35.7,-81.8 -35.2,-126.8 -1.5,-2.6 -4.5,-7.8 -6,-10.4 1.2,17.3 -0.5,34.5 -3,51.6 -27.9,-57.6 -58.6,-114.2 -100.8,-162.8 -24.4,6.6 -49.7,9 -75,9 14,26.8 32,51.2 51,74.5 -98,23 -198.8,0.7 -297.9,10.1 68.6,19.7 140.3,23.4 210.9,30.7 37.5,4.2 74.9,-16.2 111.7,-4.2"
         inkscape:connector-curvature="0"
         id="path36"
         style="fill:#ac8132;fill-opacity:1;fill-rule:nonzero;stroke:none" /><path
         d="m 2103.7,2512 c 35.3,-35 70.7,-78.8 64.8,-132 -6.5,-59.6 -19,-119.6 -43.6,-174.5 -18.1,-14.8 -36.9,-28.8 -55.5,-43.1 -8.8,6.5 -17.8,12.9 -26.7,19.3 l -4.4,3 c 28.6,61.5 74.8,119.3 77.8,189.2 -54.5,-2 -109,-10.9 -160.9,-27.5 -21.4,-5.3 -32.3,-25 -43.5,-42 -4.6,3.4 -13.8,10.1 -18.4,13.5 3.4,38.3 45.7,54 67.4,81.5 31.7,38.9 80.2,54.8 123.5,76.7 15.2,5.6 18.5,21.4 19.5,35.9"
         inkscape:connector-curvature="0"
         id="path38"
         style="fill:#927238;fill-opacity:1;fill-rule:nonzero;stroke:none" /><path
         d="m 1888.9,2461.5 c 2.5,-17.1 4.2,-34.3 3,-51.6 -21,-35.6 -41.9,-71.3 -63.4,-106.6 7.9,3.8 23.8,11.5 31.7,15.3 -3.8,-9.4 -11.4,-28.3 -15.2,-37.8 -18.9,6.4 -37.7,12.8 -56.9,17.9 42.2,48.6 72.9,105.2 100.8,162.8"
         inkscape:connector-curvature="0"
         id="path40"
         style="fill:#8c6228;fill-opacity:1;fill-rule:nonzero;stroke:none" /><path
         d="m 1160.4,2414.2 c 29.6,31.3 74.6,23.7 111.2,11.7 64.5,-13 129.7,-23.3 194.6,-33.6 99.1,-9.4 199.9,12.9 297.9,-10.1 -19,-23.3 -37,-47.7 -51,-74.5 -160.3,0.2 -320.7,-0.7 -481,-0.1 -6.7,22.8 -7.6,51.2 -28.6,66.4 -21.4,15.4 -49.1,14.5 -74.1,17.3 10.7,7.1 20.8,15 31,22.9"
         inkscape:connector-curvature="0"
         id="path42"
         style="fill:#d2a83e;fill-opacity:1;fill-rule:nonzero;stroke:none" /><path
         d="m 1016.9,2307.8 c 33.1,33.1 68.3,65.9 112.5,83.5 25,-2.8 52.7,-1.9 74.1,-17.3 21,-15.2 21.9,-43.6 28.6,-66.4 -71.7,0.2 -143.5,0.1 -215.2,0.2"
         inkscape:connector-curvature="0"
         id="path44"
         style="fill:#dcba5a;fill-opacity:1;fill-rule:nonzero;stroke:none" /><path
         d="m 1955.2,2346.4 c 51.9,16.6 106.4,25.5 160.9,27.5 -3,-69.9 -49.2,-127.7 -77.8,-189.2 -21.2,15 -43.4,28.4 -66.3,40.6 18.6,15.3 36.3,31.7 52.1,49.8 -12.8,-2.6 -25.7,-5.4 -38.4,-8.2 4.7,11.7 9.4,23.4 14.1,35 -29.9,-10.6 -65.4,-12.7 -88.5,-36.8 -5.6,5.6 -11.2,11.2 -16.7,16.9 4.3,5.6 12.8,16.8 17.1,22.4 11.2,17 22.1,36.7 43.5,42"
         inkscape:connector-curvature="0"
         id="path46"
         style="fill:#543e26;fill-opacity:1;fill-rule:nonzero;stroke:none" /><path
         d="m 751.398,2307 c 65.301,0.8 130.602,0.3 196,0.1 l 12,0.3 c 4.801,0 14.301,0.2 19.102,0.3 12.801,0 25.6,0.1 38.4,0.1 71.7,-0.1 143.5,0 215.2,-0.2 160.3,-0.6 320.7,0.3 481,0.1 25.3,0 50.6,-2.4 75,-9 19.2,-5.1 38,-11.5 56.9,-17.9 13.6,-4.6 27.9,-7.3 42.3,-8.1 1.3,-3.9 3.8,-11.5 5.1,-15.4 26.2,-1 48.4,-16.2 71.2,-27.5 -14.8,-38.2 -44.9,-66.4 -72.8,-95.1 24.5,-13.6 48.8,-27.8 71.1,-44.9 28.5,29.2 54.8,60.5 80.8,91.9 8.9,-6.4 17.9,-12.8 26.7,-19.3 18.9,-14.2 37.2,-29.2 54.6,-45.2 153.6,-137.5 232,-341.8 246.3,-544.2 1.9,-26.5 2.3,-53.1 3.1,-79.6 -0.6,-105.3 -10.1,-211.3 -37.7,-313.2 -19.1,-70.7 -46.2,-139.5 -83.3,-202.7 -26,-40.102 -53.9,-79.301 -87.5,-113.5 -21.8,-22.801 -44.7,-44.699 -70.1,-63.602 -11.4,5.903 -22.7,11.704 -34.1,17.5 -19.4,-10.796 -37.4,-27.898 -60.8,-28.398 -31.4,-2.102 -60.5,-15.801 -91.4,-21.199 30,44.801 91.3,78.398 81.4,140.398 -16.9,-0.801 -33.7,-1.597 -50.5,-2.398 5.7,21.699 11.2,43.597 16.4,65.5 -5.6,3.699 -16.6,11.097 -22.1,14.801 18.9,21.098 38.2,42.098 56,64.298 -38,-8.7 -72.3,-27.5 -108.3,-41.7 69,100.5 129.7,206.9 180.5,317.7 29,68.7 67.7,136.8 68.6,213.4 2.6,48.9 -28.7,91.2 -30.2,139.7 -4.3,55.8 -4.2,120.4 -50.5,160.1 -79.9,-16.4 -160.8,-1.1 -240.5,8.2 -21.4,3.1 -42.9,-0.6 -64,-4.1 -3.7,4.5 -7.6,8.7 -11.5,12.9 -24.8,24.9 -51,50.9 -84.9,62.6 -31.2,5.1 -62.9,1 -94.3,0.7 l -4.3,1.1 c -34.7,15.1 -70.8,34.8 -110,27.8 -32.6,-3.4 -52,-33 -78,-49.3 -26.8,-17 -53.4,-34.8 -73.7,-59.6 26.8,-45.8 74.9,-70.9 124.7,-83.8 -1.7,-29.9 -4,-59.7 -6.6,-89.5 -30.6,-10.2 -59.2,-25.4 -85.5,-44 -14,30.3 -20.6,63.4 -34.1,93.8 -14.4,19.2 -34.4,33.3 -52.5,48.8 -4.2,-12.9 -8.3,-25.9 -12.5,-38.9 -9.2,-4.8 -18.4,-9.7 -27.6,-14.6 -1.3,22.6 -1.9,45.3 -6,67.6 -9,40.5 -37.9,72.5 -53.2,110.4 2.5,38.8 14.3,76.6 15.3,115.6 -19.4,-7.8 -39.1,-14.9 -58.1,-23.5 -26,-10.3 -38.8,-37.7 -61.1,-53 -21.7,-9.6 -45.298,-13.2 -68.099,-19.2 l 2.898,8.3 c 20.301,17.8 26.102,44 31.199,69.2 -12.898,-6.2 -25.699,-12.4 -38.5,-18.7 -16.097,22.6 8.403,37.8 22.403,52.6 -20.699,19.2 -48.602,34.1 -77.301,23.7 -48.102,-16.8 -69.301,-70.2 -74.199,-117.2 -19.699,-0.5 -39.403,-1.4 -59.102,-1 7.699,14.2 15.301,28.4 23.102,42.6 -9.699,21.5 -31.5,29.6 -52.199,36.7 1.097,53.6 0.199,107.1 0.097,160.6 0.199,15.7 0.602,31.3 0.602,47 0.699,31.1 -3.903,63.7 9.097,93.1"
         inkscape:connector-curvature="0"
         id="path48"
         style="fill:#f3ebdb;fill-opacity:1;fill-rule:nonzero;stroke:none" /><path
         d="m 1963.6,2229.8 c 2.1,-1.1 6.3,-3.3 8.4,-4.5 22.9,-12.2 45.1,-25.6 66.3,-40.6 l 4.4,-3 c -26,-31.4 -52.3,-62.7 -80.8,-91.9 -22.3,17.1 -46.6,31.3 -71.1,44.9 27.9,28.7 58,56.9 72.8,95.1"
         inkscape:connector-curvature="0"
         id="path50"
         style="fill:#dcdad7;fill-opacity:1;fill-rule:nonzero;stroke:none" /><path
         d="m 575.602,1835.7 c 19.597,137.5 61.597,280.9 166.699,378.2 0,-15.7 -0.403,-31.3 -0.602,-47 -69.597,-72.9 -109.801,-170.1 -128.801,-268 -7.398,-33.3 -22.296,-64.2 -36.097,-95.1 -0.903,10.6 -1.301,21.3 -1.199,31.9"
         inkscape:connector-curvature="0"
         id="path52"
         style="fill:#a78e32;fill-opacity:1;fill-rule:nonzero;stroke:none" /><path
         d="m 2069.4,2162.4 c 18.6,14.3 37.4,28.3 55.5,43.1 6.4,-20 12.1,-40.2 18.9,-60 -5,-7.1 -14.8,-21.3 -19.8,-28.3 -17.4,16 -35.7,31 -54.6,45.2"
         inkscape:connector-curvature="0"
         id="path54"
         style="fill:#b59544;fill-opacity:1;fill-rule:nonzero;stroke:none" /><path
         d="m 612.898,1898.9 c 19,97.9 59.204,195.1 128.801,268 0.102,-53.5 1,-107 -0.097,-160.6 -33,-28.1 -47.704,-74.3 -90.204,-91.2 -5.699,-29.2 -17.296,-56.8 -34.5,-81.1 -12.5,-16.2 -26.097,-31.4 -39.398,-46.9 -0.199,4.1 -0.5,12.5 -0.699,16.7 13.801,30.9 28.699,61.8 36.097,95.1"
         inkscape:connector-curvature="0"
         id="path56"
         style="fill:#ebcc73;fill-opacity:1;fill-rule:nonzero;stroke:none" /><path
         d="m 904,2045.2 c 28.699,10.4 56.602,-4.5 77.301,-23.7 -14,-14.8 -38.5,-30 -22.403,-52.6 12.801,6.3 25.602,12.5 38.5,18.7 -5.097,-25.2 -10.898,-51.4 -31.199,-69.2 -26.199,3.8 -52.801,4.2 -79.097,1.4 1.597,15.7 2.699,31.6 6.597,46.9 12,13 29.301,18.6 44.5,26.5 -9.199,9.3 -16.597,21.3 -28.597,27.1 -28.704,-7.7 -57.403,-29.5 -61.704,-60.5 0.704,-14.2 3,-28.3 5.102,-42.5 -4.699,0.2 -14.199,0.6 -18.898,0.7 l -5.903,0.2 1.602,9.8 c 4.898,47 26.097,100.4 74.199,117.2"
         inkscape:connector-curvature="0"
         id="path58"
         style="fill:#d7d7d5;fill-opacity:1;fill-rule:nonzero;stroke:none" /><path
         d="m 2094.5,2025.8 c 24.3,8.4 48.8,16.3 73.5,23.3 18.5,-37.1 12.3,-77.4 -6.5,-112.9 9,0 18.1,-0.1 27.2,-0.2 1.6,-31.2 1.2,-74.9 -35.5,-85.1 -20.3,44.7 -68.8,70.7 -81.2,119.8 1.5,20.2 13.8,37.4 22.5,55.1"
         inkscape:connector-curvature="0"
         id="path60"
         style="fill:#e6ded7;fill-opacity:1;fill-rule:nonzero;stroke:none" /><path
         d="m 847.898,1959.8 c 4.301,31 33,52.8 61.704,60.5 12,-5.8 19.398,-17.8 28.597,-27.1 -15.199,-7.9 -32.5,-13.5 -44.5,-26.5 -3.898,-15.3 -5,-31.2 -6.597,-46.9 -8.5,-0.6 -25.602,-1.8 -34.102,-2.5 -2.102,14.2 -4.398,28.3 -5.102,42.5"
         inkscape:connector-curvature="0"
         id="path62"
         style="fill:#f5f2e6;fill-opacity:1;fill-rule:nonzero;stroke:none" /><path
         d="m 1092.5,1982.3 c 19,8.6 38.7,15.7 58.1,23.5 -1,-39 -12.8,-76.8 -15.3,-115.6 15.3,-37.9 44.2,-69.9 53.2,-110.4 4.1,-22.3 4.7,-45 6,-67.6 9.2,4.9 18.4,9.8 27.6,14.6 4.2,13 8.3,26 12.5,38.9 18.1,-15.5 38.1,-29.6 52.5,-48.8 13.5,-30.4 20.1,-63.5 34.1,-93.8 26.3,18.6 54.9,33.8 85.5,44 2.6,29.8 4.9,59.6 6.6,89.5 0.1,3.2 0.2,9.6 0.3,12.8 -17.7,14.8 -45.5,24.3 -47.9,50.7 -2.2,33.6 19,62.8 42.7,84.3 6.6,-1.4 13.3,-3 20.1,-4 12.9,1 19.2,8.6 18.8,23 17.3,0.7 34.6,-0.1 51.9,-1.1 -17.5,-24.2 -39.8,-46.7 -70.5,-51.8 -0.1,-16.2 0.3,-32.4 1.2,-48.6 -1,-16.3 -2.7,-32.6 -3.7,-48.9 l -0.3,-11.2 c 0.2,-38.5 0.2,-77.1 0.5,-115.6 0.2,-192.5 -0.7,-384.9 0.4,-577.4 0.9,-3.7 2.8,-11.2 3.8,-14.9 86.7,5.8 185.4,-21.4 260.6,35.1 105.4,75.7 148.7,208.1 159.6,332.4 12.3,146.7 -13.9,303.7 -105.5,422.8 21.1,3.5 42.6,7.2 64,4.1 79.7,-9.3 160.6,-24.6 240.5,-8.2 46.3,-39.7 46.2,-104.3 50.5,-160.1 1.5,-48.5 32.8,-90.8 30.2,-139.7 -0.9,-76.6 -39.6,-144.7 -68.6,-213.4 -50.8,-110.8 -111.5,-217.2 -180.5,-317.7 36,14.2 70.3,33 108.3,41.7 -17.8,-22.2 -37.1,-43.2 -56,-64.298 5.5,-3.704 16.5,-11.102 22.1,-14.801 -5.2,-21.903 -10.7,-43.801 -16.4,-65.5 16.8,0.801 33.6,1.597 50.5,2.398 9.9,-62 -51.4,-95.597 -81.4,-140.398 30.9,5.398 60,19.097 91.4,21.199 23.4,0.5 41.4,17.602 60.8,28.398 11.4,-5.796 22.7,-11.597 34.1,-17.5 C 1974,708.602 1821.7,659.102 1670,662.5 c -132,0.398 -264,-0.602 -396,0.5 -57.2,-0.199 -114.5,-0.102 -171.7,-0.199 -42,0 -84.1,0 -126.101,-0.199 -12.301,0.097 -24.597,0.199 -36.898,0.199 C 883.199,663 827,660.801 771,663.199 751.301,661.602 743.398,683.5 743.301,699.5 c -2.5,44.5 -0.199,89 -0.903,133.5 0.5,50.801 0.801,101.699 -0.5,152.5 -0.199,22.2 3.301,44 8.5,65.5 70.602,7.2 141.5,-2 212.301,2.9 0,24.2 0.102,48.4 0.102,72.5 0,18.6 0,37.2 0.199,55.7 4.301,-16.2 9.602,-32.1 14.801,-48.1 33.399,6.2 70.499,14.7 95.699,-14.9 58.9,52.2 145.7,49.7 216.1,78.6 15.3,39.8 51,71.9 46.3,117.8 -2.8,0.6 -8.6,1.9 -11.4,2.6 -73.7,23.2 -142.6,-24.5 -214.6,-30 -47.9,4.5 -94.1,27.7 -124.9,64.8 2.602,10.6 5.5,21.2 8.301,31.7 -7.102,5.9 -14.199,11.8 -21.301,17.7 -0.801,21.4 -1.102,42.8 0.102,64.1 6.5,25.2 23.296,44.9 46.398,56.5 7.4,37.8 13.5,75.8 20.1,113.7 -19.7,24.9 -46.299,42.3 -75.901,53.2 l 0,2.9 c -0.199,25.4 -0.199,50.7 0,76.1 0.5,43.8 0,87.6 -0.199,131.4 0.199,2.5 0.602,7.5 0.801,9.9 22.801,6 46.399,9.6 68.099,19.2 22.3,15.3 35.1,42.7 61.1,53"
         inkscape:connector-curvature="0"
         id="path64"
         style="fill:#f8f3e4;fill-opacity:1;fill-rule:nonzero;stroke:none" /><path
         d="m 651.398,1915.1 c 42.5,16.9 57.204,63.1 90.204,91.2 0.398,-25.2 0.898,-50.4 1.597,-75.6 6.903,-0.9 20.602,-2.8 27.5,-3.7 19.699,-0.4 39.403,0.5 59.102,1 l -1.602,-9.8 c -26.898,0.5 -53.801,0.6 -80.699,1.1 -3.301,-15.1 -5.602,-30.3 -6.398,-45.7 -52.5,-20.4 -84,-68.6 -126.903,-102.1 0.403,20.9 0.903,41.7 2.699,62.5 17.204,24.3 28.801,51.9 34.5,81.1"
         inkscape:connector-curvature="0"
         id="path66"
         style="fill:#f4efc8;fill-opacity:1;fill-rule:nonzero;stroke:none" /><path
         d="m 741.602,2006.3 c 20.699,-7.1 42.5,-15.2 52.199,-36.7 -7.801,-14.2 -15.403,-28.4 -23.102,-42.6 -6.898,0.9 -20.597,2.8 -27.5,3.7 -0.699,25.2 -1.199,50.4 -1.597,75.6"
         inkscape:connector-curvature="0"
         id="path68"
         style="fill:#fcfcf4;fill-opacity:1;fill-rule:nonzero;stroke:none" /><path
         d="m 1362.3,1900 c 26,16.3 45.4,45.9 78,49.3 39.2,7 75.3,-12.7 110,-27.8 -17.1,0.4 -34.1,0.1 -51.1,0.8 -17.3,1 -34.6,1.8 -51.9,1.1 -14.1,-0.8 -20.4,-8.5 -18.8,-23 -6.8,1 -13.5,2.6 -20.1,4 -23.7,-21.5 -44.9,-50.7 -42.7,-84.3 2.4,-26.4 30.2,-35.9 47.9,-50.7 -0.1,-3.2 -0.2,-9.6 -0.3,-12.8 -49.8,12.9 -97.9,38 -124.7,83.8 20.3,24.8 46.9,42.6 73.7,59.6"
         inkscape:connector-curvature="0"
         id="path70"
         style="fill:#d7d7d5;fill-opacity:1;fill-rule:nonzero;stroke:none" /><path
         d="m 747.5,1919.3 c 26.898,-0.5 53.801,-0.6 80.699,-1.1 l 5.903,-0.2 c 10.699,-21.3 25.5,-40.3 46.597,-52.2 6.5,-5.1 12.903,-10.4 19.199,-15.8 -21,-32.2 -51.796,-57.7 -66.898,-93.7 -15,-6.1 -29.801,-12.6 -44.898,-18.1 -3.204,2.1 -9.602,6.2 -12.801,8.3 3.097,5.3 9.097,15.8 12.097,21.1 -11.398,2.7 -22.898,5.4 -34.296,8.1 -6,32.4 -10.301,65 -12,97.9 0.796,15.4 3.097,30.6 6.398,45.7"
         inkscape:connector-curvature="0"
         id="path72"
         style="fill:#e5c66b;fill-opacity:1;fill-rule:nonzero;stroke:none" /><path
         d="m 834.102,1918 c 4.699,-0.1 14.199,-0.5 18.898,-0.7 -2.398,-40.4 43.801,-35.7 70.801,-31.5 -12.102,11.6 -24.199,23 -36.699,34 26.296,2.8 52.898,2.4 79.097,-1.4 l -2.898,-8.3 c -0.199,-2.4 -0.602,-7.4 -0.801,-9.9 -29.898,-6.1 -49.898,-37.5 -81.801,-34.4 -21.097,11.9 -35.898,30.9 -46.597,52.2"
         inkscape:connector-curvature="0"
         id="path74"
         style="fill:#242110;fill-opacity:1;fill-rule:nonzero;stroke:none" /><path
         d="m 853,1917.3 c 8.5,0.7 25.602,1.9 34.102,2.5 12.5,-11 24.597,-22.4 36.699,-34 -27,-4.2 -73.199,-8.9 -70.801,31.5"
         inkscape:connector-curvature="0"
         id="path76"
         style="fill:#938357;fill-opacity:1;fill-rule:nonzero;stroke:none" /><path
         d="m 1428.5,1900.4 c -1.6,14.5 4.7,22.2 18.8,23 0.4,-14.4 -5.9,-22 -18.8,-23"
         inkscape:connector-curvature="0"
         id="path78"
         style="fill:#cdbd83;fill-opacity:1;fill-rule:nonzero;stroke:none" /><path
         d="m 1499.2,1922.3 c 17,-0.7 34,-0.4 51.1,-0.8 l 4.3,-1.1 c 22.3,-14.3 44.3,-29.7 62.6,-49.2 -21.1,-45.2 -58.6,-83.3 -105,-102.4 -27.9,-8.4 -57.6,-5.6 -86.3,-7 l 0.3,11.2 c 21.6,0.2 43.2,1 64.9,2.2 -23.8,10.8 -46.7,24.3 -61.2,46.7 -0.9,16.2 -1.3,32.4 -1.2,48.6 30.7,5.1 53,27.6 70.5,51.8"
         inkscape:connector-curvature="0"
         id="path80"
         style="fill:#252211;fill-opacity:1;fill-rule:nonzero;stroke:none" /><path
         d="m 1554.6,1920.4 c 31.4,0.3 63.1,4.4 94.3,-0.7 33.9,-11.7 60.1,-37.7 84.9,-62.6 -32,-33.1 -52.9,-74.3 -80.3,-110.8 -27.1,-37.3 -75.9,-43.7 -114.1,-64.7 -35.1,-19 -73,-32.3 -113,-35.4 -0.3,38.5 -0.3,77.1 -0.5,115.6 28.7,1.4 58.4,-1.4 86.3,7 46.4,19.1 83.9,57.2 105,102.4 -18.3,19.5 -40.3,34.9 -62.6,49.2"
         inkscape:connector-curvature="0"
         id="path82"
         style="fill:#d2b257;fill-opacity:1;fill-rule:nonzero;stroke:none" /><path
         d="m 880.699,1865.8 c 31.903,-3.1 51.903,28.3 81.801,34.4 0.199,-43.8 0.699,-87.6 0.199,-131.4 -24,-5.9 -49.097,-18.7 -73.801,-9.4 -18.597,7.4 -38,5.3 -55.898,-3.1 15.102,36 45.898,61.5 66.898,93.7 -6.296,5.4 -12.699,10.7 -19.199,15.8"
         inkscape:connector-curvature="0"
         id="path84"
         style="fill:#e6bd62;fill-opacity:1;fill-rule:nonzero;stroke:none" /><path
         d="m 1503.1,1896.9 c 32.4,-2.7 -16.8,-30.1 0,0"
         inkscape:connector-curvature="0"
         id="path86"
         style="fill:#696148;fill-opacity:1;fill-rule:nonzero;stroke:none" /><path
         d="m 614.199,1771.5 c 42.903,33.5 74.403,81.7 126.903,102.1 1.699,-32.9 6,-65.5 12,-97.9 11.398,-2.7 22.898,-5.4 34.296,-8.1 -3,-5.3 -9,-15.8 -12.097,-21.1 -33.903,-25.7 -77.903,-44.8 -94.602,-86.9 -19,-51.6 -17.097,-107.6 -24.199,-161.5 -12.301,12.2 -30.699,22.3 -29.602,42.2 -2.597,40.5 8.102,80.3 10.5,120.5 -18.699,-27.2 -30,-58.4 -41.199,-89.2 -5.097,-19.4 -27.801,-23.6 -42.597,-33.3 -15.204,-5.6 -30.301,-11.4 -45.5,-17 1.898,16.8 4.296,33.5 7.296,50.2 15.5,1.5 31.102,3 46.704,4.7 -17,-0.7 -33.903,-1.7 -50.801,-2.7 11.898,73.1 20,152.7 66.199,213.6 13.301,15.5 26.898,30.7 39.398,46.9 -1.796,-20.8 -2.296,-41.6 -2.699,-62.5"
         inkscape:connector-curvature="0"
         id="path88"
         style="fill:#f4ecb4;fill-opacity:1;fill-rule:nonzero;stroke:none" /><path
         d="m 1512.9,1859.3 c 30.3,14.3 3.1,-32.6 0,0"
         inkscape:connector-curvature="0"
         id="path90"
         style="fill:#71694f;fill-opacity:1;fill-rule:nonzero;stroke:none" /><path
         d="m 1733.8,1857.1 c 3.9,-4.2 7.8,-8.4 11.5,-12.9 91.6,-119.1 117.8,-276.1 105.5,-422.8 -15.7,-8.5 -31.7,-16.6 -46.5,-26.7 -25.4,-17.4 -39.3,-47 -64.7,-64.4 -44.5,-22.2 -100.5,-16.9 -140.1,-49.6 -22.6,-25.6 -38,-57.1 -64.4,-79.4 14.1,-14.3 29.3,-27.6 42.3,-43 6.8,-11.9 4.3,-27.2 11.1,-39.2 12.7,-10.2 27.2,-18 41.1,-26.6 -36,-5.4 -72.5,-4.1 -108.6,0.7 -33.7,6.4 -64.1,-12.7 -94.2,-24.4 -1.1,192.5 -0.2,384.9 -0.4,577.4 40,3.1 77.9,16.4 113,35.4 38.2,21 87,27.4 114.1,64.7 27.4,36.5 48.3,77.7 80.3,110.8"
         inkscape:connector-curvature="0"
         id="path92"
         style="fill:#dfcd88;fill-opacity:1;fill-rule:nonzero;stroke:none" /><path
         d="m 1429.9,1821.9 c 14.5,-22.4 37.4,-35.9 61.2,-46.7 -21.7,-1.2 -43.3,-2 -64.9,-2.2 1,16.3 2.7,32.6 3.7,48.9"
         inkscape:connector-curvature="0"
         id="path94"
         style="fill:#dfcd88;fill-opacity:1;fill-rule:nonzero;stroke:none" /><path
         d="m 833,1756.3 c 17.898,8.4 37.301,10.5 55.898,3.1 24.704,-9.3 49.801,3.5 73.801,9.4 -0.199,-25.4 -0.199,-50.7 0,-76.1 -47.699,16.8 -97.398,30 -148.5,27.2 -8.699,6.2 -17.398,12.3 -26.097,18.3 15.097,5.5 29.898,12 44.898,18.1"
         inkscape:connector-curvature="0"
         id="path96"
         style="fill:#dfc57c;fill-opacity:1;fill-rule:nonzero;stroke:none" /><path
         d="m 680.699,1659.6 c 16.699,42.1 60.699,61.2 94.602,86.9 3.199,-2.1 9.597,-6.2 12.801,-8.3 8.699,-6 17.398,-12.1 26.097,-18.3 -45.597,-1.5 -90.597,-30.9 -96,-78.9 -7.898,-61 -29,-119.5 -34.699,-180.7 -6,-44 34.602,-72.8 47.301,-111.2 3.898,-20.9 5.199,-42.2 10.5,-62.8 -6.102,-26.7 -11.403,-53.6 -15.602,-80.6 -8.898,-0.2 -17.898,-0.5 -26.801,-0.8 -9.398,-21.8 -20.699,-43 -27.796,-65.8 8.097,-43.9 22.5,-86.6 32.597,-130.2 -2,-4.9 -6.097,-14.798 -8.097,-19.701 -21.801,23.701 -34.204,56.801 -63,73.201 -7.403,12.5 -15.403,24.5 -22.801,36.9 -44.301,75.4 -74.602,159.5 -88.102,245.9 4.102,25.5 9,50.9 13.199,76.3 18.403,-36.5 16.403,-81 41,-114.3 16.704,4.4 33.5,8.5 50.5,11.5 l 8.403,-10 c 17.597,25.5 34.199,52.9 37.398,84.5 -11.5,-15.6 -22.199,-31.8 -31.898,-48.6 -14,22 -30.602,43 -38.699,68 -4.5,28.9 -3.5,58.2 -5.801,87.2 -10.5,-2 -20.903,-4 -31.403,-6.3 l 7.5,8.4 c 9.301,10.4 18.204,21.1 27.204,31.7 -12.403,1.6 -24.801,3.6 -37.301,4.3 l -8.199,0.4 c 14.796,9.7 37.5,13.9 42.597,33.3 11.199,30.8 22.5,62 41.199,89.2 -2.398,-40.2 -13.097,-80 -10.5,-120.5 -1.097,-19.9 17.301,-30 29.602,-42.2 7.102,53.9 5.199,109.9 24.199,161.5"
         inkscape:connector-curvature="0"
         id="path98"
         style="fill:#f3e19d;fill-opacity:1;fill-rule:nonzero;stroke:none" /><path
         d="m 718.199,1641 c 5.403,48 50.403,77.4 96,78.9 51.102,2.8 100.801,-10.4 148.5,-27.2 l 0,-2.9 c 0.301,-44.7 -0.301,-89.3 0.199,-134 l -0.097,-8.3 c -15,-14.6 -29.199,-30.1 -43.602,-45.4 -24.398,-20.8 -55.699,-29.1 -86.097,-36.9 -1.403,-6.5 -4.204,-19.5 -5.602,-26 -1.602,-7.2 -4.699,-21.7 -6.301,-28.9 -42.898,39.8 -68,93.2 -96.5,143.2 -15.898,26.6 -9.801,58.6 -6.5,87.5"
         inkscape:connector-curvature="0"
         id="path100"
         style="fill:#252211;fill-opacity:1;fill-rule:nonzero;stroke:none" /><path
         d="m 962.699,1689.8 c 29.602,-10.9 56.201,-28.3 75.901,-53.2 -6.6,-37.9 -12.7,-75.9 -20.1,-113.7 -23.102,-11.6 -39.898,-31.3 -46.398,-56.5 1.597,30.2 -3.301,60 -9.204,89.4 -0.5,44.7 0.102,89.3 -0.199,134"
         inkscape:connector-curvature="0"
         id="path102"
         style="fill:#dfddd9;fill-opacity:1;fill-rule:nonzero;stroke:none" /><path
         d="m 282.5,1677 c 31.898,4.1 64.199,0.6 96.199,2.5 l -14.097,-17.9 c 49.597,3.7 100.097,0.1 148,-13.8 -43.903,8.8 -88.5,15.6 -133.301,12.2 -16.602,-1.9 -31.403,5.8 -45,14.2 -16.102,1.3 -41.602,-16.2 -51.801,2.8"
         inkscape:connector-curvature="0"
         id="path104"
         style="fill:#d6d6d5;fill-opacity:1;fill-rule:nonzero;stroke:none" /><path
         d="m 683.5,1460.3 c 5.699,61.2 26.801,119.7 34.699,180.7 -3.301,-28.9 -9.398,-60.9 6.5,-87.5 28.5,-50 53.602,-103.4 96.5,-143.2 1.602,7.2 4.699,21.7 6.301,28.9 15.699,-0.7 31.398,-1.6 47.199,-2.6 22,-17.8 45.699,-33.8 64.699,-55.1 20.5,39 -8.398,77.2 -4.5,117.3 -3.898,0.8 -11.796,2.5 -15.699,3.3 14.403,15.3 28.602,30.8 43.602,45.4 -0.199,-68.1 0.097,-136.3 0.097,-204.4 -77,24 -159.199,51.9 -239.699,26.1 75.301,-34.4 160.199,-37.1 239.602,-57.9 0,-22.5 -0.199,-45 -0.403,-67.5 -36.699,-16.5 -70.097,-39.3 -105.796,-57.8 -37.204,25 -64.301,61.7 -101.204,87.1 -3.5,3.3 -10.597,9.9 -14.097,13.2 -5.301,20.6 -6.602,41.9 -10.5,62.8 -12.699,38.4 -53.301,67.2 -47.301,111.2"
         inkscape:connector-curvature="0"
         id="path106"
         style="fill:#6e6342;fill-opacity:1;fill-rule:nonzero;stroke:none" /><path
         d="m 377.602,1530.4 c 38.296,21.2 81.699,30.7 124.199,39.1 -4.5,-9.6 -12,-15.4 -22.301,-17.6 -33.199,-10 -66.699,-21.6 -101.898,-21.5"
         inkscape:connector-curvature="0"
         id="path108"
         style="fill:#bfa64c;fill-opacity:1;fill-rule:nonzero;stroke:none" /><path
         d="m 2370.3,1573 c 19.9,-52.4 18.6,-109.9 39.1,-162.2 20.6,-74.4 62.2,-146.4 54.8,-225.8 -10.2,16.6 -19.7,34.3 -18.9,54.4 0.2,42.9 -22.7,80.3 -33.2,120.8 -12.4,44.6 -25.3,89 -38.7,133.2 -0.8,26.5 -1.2,53.1 -3.1,79.6"
         inkscape:connector-curvature="0"
         id="path110"
         style="fill:#988430;fill-opacity:1;fill-rule:nonzero;stroke:none" /><path
         d="m 962.898,1555.8 c 5.903,-29.4 10.801,-59.2 9.204,-89.4 -1.204,-21.3 -0.903,-42.7 -0.102,-64.1 7.102,-5.9 14.199,-11.8 21.301,-17.7 -2.801,-10.5 -5.699,-21.1 -8.301,-31.7 -3.898,-15.5 -4.5,-31.6 -4.301,-47.6 109.001,-38.4 245.501,-65.2 343.801,12.8 2.8,-0.7 8.6,-2 11.4,-2.6 4.7,-45.9 -31,-78 -46.3,-117.8 -70.4,-28.9 -157.2,-26.4 -216.1,-78.6 -25.2,29.6 -62.3,21.1 -95.699,14.9 -5.199,16 -10.5,31.9 -14.801,48.1 -0.898,20.6 -0.699,41.1 -0.602,61.7 0.204,22.5 0.403,45 0.403,67.5 0.097,10.6 0.097,21.2 0.097,31.8 0,68.1 -0.296,136.3 -0.097,204.4 l 0.097,8.3"
         inkscape:connector-curvature="0"
         id="path112"
         style="fill:#e7e3db;fill-opacity:1;fill-rule:nonzero;stroke:none" /><path
         d="m 561.801,1537.9 c 12.5,-0.7 24.898,-2.7 37.301,-4.3 -9,-10.6 -17.903,-21.3 -27.204,-31.7 -20.597,-10.6 -41.398,-20.6 -62,-31.2 -0.296,10.6 -1.097,31.9 -1.5,42.5 17.602,8.7 35.301,17.3 53.403,24.7"
         inkscape:connector-curvature="0"
         id="path114"
         style="fill:#f5edb6;fill-opacity:1;fill-rule:nonzero;stroke:none" /><path
         d="m 564.398,1493.5 c 10.5,2.3 20.903,4.3 31.403,6.3 2.301,-29 1.301,-58.3 5.801,-87.2 8.097,-25 24.699,-46 38.699,-68 -4.903,-8.5 -9.5,-17.1 -13.903,-25.9 -17,-3 -33.796,-7.1 -50.5,-11.5 -24.597,33.3 -22.597,77.8 -41,114.3 -4.199,-25.4 -9.097,-50.8 -13.199,-76.3 -5.199,38 -10.597,76.2 -11,114.6 13.801,16.2 36.199,22.3 53.699,33.7"
         inkscape:connector-curvature="0"
         id="path116"
         style="fill:#f4ecb4;fill-opacity:1;fill-rule:nonzero;stroke:none" /><path
         d="m 833.102,1465.2 c 30.398,7.8 61.699,16.1 86.097,36.9 3.903,-0.8 11.801,-2.5 15.699,-3.3 -3.898,-40.1 25,-78.3 4.5,-117.3 -19,21.3 -42.699,37.3 -64.699,55.1 -15.801,1 -31.5,1.9 -47.199,2.6 1.398,6.5 4.199,19.5 5.602,26"
         inkscape:connector-curvature="0"
         id="path118"
         style="fill:#39331f;fill-opacity:1;fill-rule:nonzero;stroke:none" /><path
         d="m 2373.4,1493.4 c 13.4,-44.2 26.3,-88.6 38.7,-133.2 10.5,-40.5 33.4,-77.9 33.2,-120.8 -0.8,-20.1 8.7,-37.8 18.9,-54.4 -7.6,-56.5 22.1,-108.8 19.2,-164.9 -0.7,-20.702 -3.1,-41.401 -4.2,-62.202 -7.5,12.801 -16.4,24.704 -25.9,36 -10.9,-33.699 -3.7,-75.296 -31.2,-101.597 -12,17 -18,45.199 -42.5,47.699 -35.5,5.699 -68.6,-11.699 -92.4,-36.801 -31.3,-33.5 -79.7,-35 -122.3,-39.199 33.6,34.199 61.5,73.398 87.5,113.5 23.2,-7.301 38.8,13.398 56.1,24.6 17.1,14.5 39.5,19.4 58.6,30.5 16.2,25.6 28.2,54.2 35,83.7 -5.5,19.4 -14.6,37.5 -19,57.2 -10,-2.4 -19.8,-4.8 -29.7,-7.2 -4.4,3.5 -13.3,10.4 -17.7,13.9 27.6,101.9 37.1,207.9 37.7,313.2"
         inkscape:connector-curvature="0"
         id="path120"
         style="fill:#cca847;fill-opacity:1;fill-rule:nonzero;stroke:none" /><path
         d="m 465.801,1449.6 c 15,6.9 15.199,-12.8 3,-15.9 -10.602,-5.4 -23.301,-16.5 -35.801,-11.2 -0.5,15.5 21.301,21.4 32.801,27.1"
         inkscape:connector-curvature="0"
         id="path122"
         style="fill:#c1a956;fill-opacity:1;fill-rule:nonzero;stroke:none" /><path
         d="m 1804.3,1394.7 c 14.8,10.1 30.8,18.2 46.5,26.7 -10.9,-124.3 -54.2,-256.7 -159.6,-332.4 -75.2,-56.5 -173.9,-29.3 -260.6,-35.1 -1,3.7 -2.9,11.2 -3.8,14.9 30.1,11.7 60.5,30.8 94.2,24.4 36.1,-4.8 72.6,-6.1 108.6,-0.7 -13.9,8.6 -28.4,16.4 -41.1,26.6 -6.8,12 -4.3,27.3 -11.1,39.2 -13,15.4 -28.2,28.7 -42.3,43 26.4,22.3 41.8,53.8 64.4,79.4 39.6,32.7 95.6,27.4 140.1,49.6 25.4,17.4 39.3,47 64.7,64.4"
         inkscape:connector-curvature="0"
         id="path124"
         style="fill:#ecd592;fill-opacity:1;fill-rule:nonzero;stroke:none" /><path
         d="m 640.301,1344.6 c 9.699,16.8 20.398,33 31.898,48.6 -3.199,-31.6 -19.801,-59 -37.398,-84.5 l -8.403,10 c 4.403,8.8 9,17.4 13.903,25.9"
         inkscape:connector-curvature="0"
         id="path126"
         style="fill:#d7c27c;fill-opacity:1;fill-rule:nonzero;stroke:none" /><path
         d="m 723.199,1369.2 c 80.5,25.8 162.699,-2.1 239.699,-26.1 0,-10.6 0,-21.2 -0.097,-31.8 -79.403,20.8 -164.301,23.5 -239.602,57.9"
         inkscape:connector-curvature="0"
         id="path128"
         style="fill:#242110;fill-opacity:1;fill-rule:nonzero;stroke:none" /><path
         d="m 980.699,1305.3 c -0.199,16 0.403,32.1 4.301,47.6 30.8,-37.1 77,-60.3 124.9,-64.8 72,5.5 140.9,53.2 214.6,30 -98.3,-78 -234.8,-51.2 -343.801,-12.8"
         inkscape:connector-curvature="0"
         id="path130"
         style="fill:#d6d6d5;fill-opacity:1;fill-rule:nonzero;stroke:none" /><path
         d="m 741.301,1286.3 c 3.5,-3.3 10.597,-9.9 14.097,-13.2 3.602,-48.7 33,-89.5 55.801,-131.1 18.5,-34.4 49.801,-59.4 81.801,-80.7 22.602,-6.3 46.398,-5.5 69.699,-7.4 -70.801,-4.9 -141.699,4.3 -212.301,-2.9 -5.199,-21.5 -8.699,-43.3 -8.5,-65.5 -12.699,7.801 -25.398,15.6 -38.199,23.4 -10.097,43.6 -24.5,86.3 -32.597,130.2 7.097,22.8 18.398,44 27.796,65.8 8.903,0.3 17.903,0.6 26.801,0.8 4.199,27 9.5,53.9 15.602,80.6"
         inkscape:connector-curvature="0"
         id="path132"
         style="fill:#eed88b;fill-opacity:1;fill-rule:nonzero;stroke:none" /><path
         d="m 755.398,1273.1 c 36.903,-25.4 64,-62.1 101.204,-87.1 10.398,-9.3 20,-19.4 30,-29.1 21.898,-17.4 49.898,-23 76.199,-30.5 0,-24.1 -0.102,-48.3 -0.102,-72.5 -23.301,1.9 -47.097,1.1 -69.699,7.4 -32,21.3 -63.301,46.3 -81.801,80.7 -22.801,41.6 -52.199,82.4 -55.801,131.1"
         inkscape:connector-curvature="0"
         id="path134"
         style="fill:#dfc677;fill-opacity:1;fill-rule:nonzero;stroke:none" /><path
         d="m 856.602,1186 c 35.699,18.5 69.097,41.3 105.796,57.8 -0.097,-20.6 -0.296,-41.1 0.602,-61.7 -26.602,-4.2 -57.602,-1.9 -76.398,-25.2 -10,9.7 -19.602,19.8 -30,29.1"
         inkscape:connector-curvature="0"
         id="path136"
         style="fill:#927d49;fill-opacity:1;fill-rule:nonzero;stroke:none" /><path
         d="m 886.602,1156.9 c 18.796,23.3 49.796,21 76.398,25.2 -0.199,-18.5 -0.199,-37.1 -0.199,-55.7 -26.301,7.5 -54.301,13.1 -76.199,30.5"
         inkscape:connector-curvature="0"
         id="path138"
         style="fill:#c4a859;fill-opacity:1;fill-rule:nonzero;stroke:none" /><path
         d="m 2335.7,1180.2 c 4.4,-3.5 13.3,-10.4 17.7,-13.9 9.9,2.4 19.7,4.8 29.7,7.2 4.4,-19.7 13.5,-37.8 19,-57.2 -6.8,-29.5 -18.8,-58.1 -35,-83.7 -19.1,-11.1 -41.5,-16 -58.6,-30.5 -17.3,-11.202 -32.9,-31.901 -56.1,-24.6 37.1,63.2 64.2,132 83.3,202.7"
         inkscape:connector-curvature="0"
         id="path140"
         style="fill:#c0993a;fill-opacity:1;fill-rule:nonzero;stroke:none" /><path
         d="m 609.801,1099.3 c 7.398,-12.4 15.398,-24.4 22.801,-36.9 21.097,-81.798 50.097,-167.502 109.796,-229.4 0.704,-44.5 -1.597,-89 0.903,-133.5 0.097,-16 8,-37.898 27.699,-36.301 56,-2.398 112.199,-0.199 168.301,-0.398 -21.801,-28.801 -5.903,-63 -5.301,-95.102 0.602,-37.801 20.5,-71.301 26.301,-108 -15.801,-40 -42.199,-74.5 -63.102,-111.801 -20.898,-3.097 -42.801,5.204 -62.898,-0.597 -11.903,-16.403 -18.5,-39.602 -41.199,-44 C 685.898,369.898 585,447.602 498.5,539.898 c 38.301,77.704 70.699,162 63.301,250.301 -5.801,36.403 21.801,65.403 27.5,99.699 -0.903,20.204 -16.102,36.102 -25.199,53.301 32.5,45.5 44.398,101.001 45.699,156.101"
         inkscape:connector-curvature="0"
         id="path142"
         style="fill:#e5cb7a;fill-opacity:1;fill-rule:nonzero;stroke:none" /><path
         d="m 632.602,1062.4 c 28.796,-16.4 41.199,-49.5 63,-73.201 2,4.903 6.097,14.801 8.097,19.701 12.801,-7.8 25.5,-15.599 38.199,-23.4 1.301,-50.801 1,-101.699 0.5,-152.5 -59.699,61.898 -88.699,147.602 -109.796,229.4"
         inkscape:connector-curvature="0"
         id="path144"
         style="fill:#d2b159;fill-opacity:1;fill-rule:nonzero;stroke:none" /><path
         d="m 2453.3,993.898 c 9.5,-11.296 18.4,-23.199 25.9,-36 5.1,-59.398 18.4,-118 19,-177.898 1.5,-80.801 2.7,-161.602 6.5,-242.301 -89.9,-95.097 -194.1,-177.199 -307.8,-241.801 -43.1,30.903 -92.7,7 -132,-17.597 7.3,14.398 18.2,26.097 30.4,36.398 24.1,20.102 33.5,52.5 58.7,71.602 26,23.398 60.8,36.699 81.3,65.898 20.7,44.699 65.9,69 93.1,108.903 25.4,36.5 67.2,70.097 63.3,118.898 -1.8,41.898 6.7,83 11.6,124.301 1.4,30.097 6,60.5 18.8,88 27.5,26.301 20.3,67.898 31.2,101.597"
         inkscape:connector-curvature="0"
         id="path146"
         style="fill:#ba9040;fill-opacity:1;fill-rule:nonzero;stroke:none" /><path
         d="m 2287.2,903.199 c 23.8,25.102 56.9,42.5 92.4,36.801 24.5,-2.5 30.5,-30.699 42.5,-47.699 -12.8,-27.5 -17.4,-57.903 -18.8,-88 C 2398.4,763 2389.9,721.898 2391.7,680 c 3.9,-48.801 -37.9,-82.398 -63.3,-118.898 -27.2,-39.903 -72.4,-64.204 -93.1,-108.903 -14.5,-0.097 -29,-0.301 -43.5,-0.5 36.5,55.801 59.4,118.699 88.4,178.301 6.7,9.801 3.8,20.602 0.4,30.801 -6.9,17.199 1.8,35 0.9,52.597 -3,18.102 -10.6,35 -16.6,52.204 -30.9,5.699 -62,13.597 -93.6,11.796 -39.3,-7.097 -66.5,-40 -101.9,-55.597 -16.9,-7.199 -36,-9 -51.7,-19 -31.4,-26.699 -38.9,-73.301 -75.3,-95.5 -35.5,-24.199 -66.8,-53.699 -100.1,-80.699 -19.6,-18.301 -48.2,-4.704 -71.8,-8.602 -20.8,-10.602 -35.4,-30 -55.1,-42.301 -25.5,-8.597 -55.7,-5 -76.9,-24 -34.6,-30 -85.5,-21.398 -122.1,-48.097 -41.4,-21.102 -60,-67.801 -99.6,-91.102 -29.8,-17.801 -53.3,-43.699 -77,-68.699 -6.4,7.898 -12.8,15.699 -19.1,23.5 -33,-19.102 -59.9,-49.699 -98.5,-57.801 -13.8,16.398 -27.2,36.398 -51,37.398 3.9,8 7.7,16 11.3,24.102 -8.2,10.602 -17.5,21.102 -32.4,18.898 -36.2,4.403 -72.6,-3.296 -108.8,-0.597 -24.6,13.097 -45.499,33 -60.3,56.597 27.8,33.102 40.7,75 63.9,110.801 13.8,19.199 36.1,3.903 53.5,-0.398 7.2,16.597 14.5,33.097 21.7,49.597 9.8,-1.199 19.6,-2.398 29.4,-3.699 23.6,21.5 37.4,50.301 46.5,80.403 15.8,4.699 31.6,9.398 47.3,14.199 -0.2,26.199 11.8,48.699 30.7,66.199 132,-1.102 264,-0.102 396,-0.5 151.7,-3.398 304,46.102 424.8,137.898 25.4,18.903 48.3,40.801 70.1,63.602 42.6,4.199 91,5.699 122.3,39.199"
         inkscape:connector-curvature="0"
         id="path148"
         style="fill:#d8c173;fill-opacity:1;fill-rule:nonzero;stroke:none" /><path
         d="m 2069.4,721.801 c 35.4,15.597 62.6,48.5 101.9,55.597 31.6,1.801 62.7,-6.097 93.6,-11.796 6,-17.204 13.6,-34.102 16.6,-52.204 0.9,-17.597 -7.8,-35.398 -0.9,-52.597 3.4,-10.199 6.3,-21 -0.4,-30.801 -29,-59.602 -51.9,-122.5 -88.4,-178.301 14.5,0.199 29,0.403 43.5,0.5 -20.5,-29.199 -55.3,-42.5 -81.3,-65.898 -25.2,-19.102 -34.6,-51.5 -58.7,-71.602 -12.2,-10.301 -23.1,-22 -30.4,-36.398 C 2013.2,244 1952.1,228.398 1897,200.699 c -0.4,10.199 -0.8,20.403 -1.1,30.5 -39.8,-8.898 -79.8,-16.597 -118.9,-27.898 -33.6,-9.199 -54.2,-39.903 -83.9,-55.903 -23.7,-8.699 -51.1,-10.796 -68.7,-31.199 -181.7,-15 -366.2,3.199 -540.6,56.699 19.5,6.204 39,12.801 58.2,20.204 2.6,21.296 14.3,38.898 29.2,53.796 23.8,-1 37.2,-21 51,-37.398 38.6,8.102 65.5,38.699 98.5,57.801 6.3,-7.801 12.7,-15.602 19.1,-23.5 23.7,25 47.2,50.898 77,68.699 39.6,23.301 58.2,70 99.6,91.102 36.6,26.699 87.5,18.097 122.1,48.097 21.2,19 51.4,15.403 76.9,24 19.7,12.301 34.3,31.699 55.1,42.301 23.6,3.898 52.2,-9.699 71.8,8.602 33.3,27 64.6,56.5 100.1,80.699 36.4,22.199 43.9,68.801 75.3,95.5 15.7,10 34.8,11.801 51.7,19"
         inkscape:connector-curvature="0"
         id="path150"
         style="fill:#e0cd81;fill-opacity:1;fill-rule:nonzero;stroke:none" /><path
         d="m 939.301,662.801 c 12.301,0 24.597,-0.102 36.898,-0.199 28.501,-33.5 65.301,-70.704 112.301,-70.704 37.1,3.704 18.7,47.704 13.8,70.903 57.2,0.097 114.5,0 171.7,0.199 -18.9,-17.5 -30.9,-40 -30.7,-66.199 -15.7,-4.801 -31.5,-9.5 -47.3,-14.199 -9.1,-30.102 -22.9,-58.903 -46.5,-80.403 -9.8,1.301 -19.6,2.5 -29.4,3.699 -7.2,-16.5 -14.5,-33 -21.7,-49.597 -17.4,4.301 -39.7,19.597 -53.5,0.398 C 1021.7,420.898 1008.8,379 981,345.898 c -5,10.102 -9.898,20.204 -14.602,30.403 -22.898,-10 -45.796,-19.801 -69.199,-28.403 20.903,37.301 47.301,71.801 63.102,111.801 -5.801,36.699 -25.699,70.199 -26.301,108 -0.602,32.102 -16.5,66.301 5.301,95.102"
         inkscape:connector-curvature="0"
         id="path152"
         style="fill:#c2a44d;fill-opacity:1;fill-rule:nonzero;stroke:none" /><path
         d="m 976.199,662.602 c 42.001,0.199 84.101,0.199 126.101,0.199 4.9,-23.199 23.3,-67.199 -13.8,-70.903 -47,0 -83.8,37.204 -112.301,70.704"
         inkscape:connector-curvature="0"
         id="path154"
         style="fill:#d2b159;fill-opacity:1;fill-rule:nonzero;stroke:none" /><path
         d="m 897.199,347.898 c 23.403,8.602 46.301,18.403 69.199,28.403 C 971.102,366.102 976,356 981,345.898 c 14.801,-23.597 35.7,-43.5 60.3,-56.597 36.2,-2.699 72.6,5 108.8,0.597 14.9,2.204 24.2,-8.296 32.4,-18.898 -3.6,-8.102 -7.4,-16.102 -11.3,-24.102 -14.9,-14.898 -26.6,-32.5 -29.2,-53.796 -19.2,-7.403 -38.7,-14 -58.2,-20.204 -101.101,33.5 -198.402,77.301 -290.698,130.403 22.699,4.398 29.296,27.597 41.199,44 20.097,5.801 42,-2.5 62.898,0.597"
         inkscape:connector-curvature="0"
         id="path156"
         style="fill:#ceb052;fill-opacity:1;fill-rule:nonzero;stroke:none" /><path
         d="m 2064.9,278.301 c 39.3,24.597 88.9,48.5 132,17.597 -174.1,-101.296 -371.3,-165.5 -572.5,-179.699 17.6,20.403 45,22.5 68.7,31.199 29.7,16 50.3,46.704 83.9,55.903 39.1,11.301 79.1,19 118.9,27.898 0.3,-10.097 0.7,-20.301 1.1,-30.5 55.1,27.699 116.2,43.301 167.9,77.602"
         inkscape:connector-curvature="0"
         id="path158"
         style="fill:#d2ba6b;fill-opacity:1;fill-rule:nonzero;stroke:none" /></g></g></svg>