<?xml version="1.0" encoding="iso-8859-1"?>
<!-- Generator: Adobe Illustrator 17.0.2, SVG Export Plug-In . SVG Version: 6.00 Build 0)  -->
<!DOCTYPE svg PUBLIC "-//W3C//DTD SVG 1.1//EN" "http://www.w3.org/Graphics/SVG/1.1/DTD/svg11.dtd">
<svg version="1.1" id="Capa_1" xmlns="http://www.w3.org/2000/svg" xmlns:xlink="http://www.w3.org/1999/xlink" x="0px" y="0px"
	 width="100px" height="100px" viewBox="0 0 100 100" style="enable-background:new 0 0 100 100;" xml:space="preserve">
<g>
	<path style="fill:#1D1D1B;" d="M5.199,76.763c0.01,0.091,0.035,0.17,0.053,0.255c-0.099,0.909,0.334,1.843,1.489,2.121
		c28.396,6.83,57.754,4.671,86.686,5.327c0.34,0.008,0.637-0.052,0.892-0.162c0.815-0.217,1.516-0.859,1.559-1.939
		c0.534-13.185,1.167-29.521,0.525-42.714c-0.011-0.215-0.055-0.407-0.113-0.589c-0.149-0.917-0.813-1.772-1.988-1.862
		C80.651,36.156,67,33.853,53.339,32.188c0.873-2.383,2.488-4.25,4.853-5.425c0.114-0.016,0.228-0.04,0.339-0.085
		c3.668-1.48,6.218-4.169,6.897-8.147c0.431-2.522-3.424-3.602-3.857-1.063c-0.43,2.518-1.68,4.375-4.103,5.353
		c-0.164,0.066-0.316,0.15-0.461,0.242c-0.249,0.02-0.505,0.082-0.767,0.21c-3.457,1.687-5.886,4.792-6.95,8.44
		c-14.979-1.667-29.973-2.34-44.999,0.485c-1.529,0.288-1.801,1.743-1.256,2.838c0.089,0.62,0.177,1.239,0.266,1.859
		c-0.024,0.149-0.036,0.308-0.027,0.48C3.92,49.458,3.887,64.722,5.199,76.763z M7.65,40.876c0.01-1.684,0.115-3.361,0.236-5.039
		c28.121-4.558,56.354,2.991,84.376,5.395c0.491,11.955-0.008,27.055-0.498,39.003c-27.528-0.522-55.461,1.372-82.494-4.837
		C8.222,65.001,8.102,51.403,7.64,40.97C7.642,40.937,7.65,40.909,7.65,40.876z"/>
	<path style="fill:#1D1D1B;" d="M12.344,48.154c2.898,0.916,3.835,1.273,6.86,0.95c0.502-0.054,0.91-0.247,1.225-0.523
		c0.809-0.224,1.51-0.863,1.576-1.928c0.175-2.799,0.337-3.497,0.35-6.302c0.002-0.471-0.129-0.855-0.337-1.162
		c-0.221-0.799-0.863-1.464-1.939-1.464h-7.177c-0.93,0-1.533,0.499-1.824,1.149c-0.152,0.268-0.255,0.582-0.276,0.952
		c-0.157,2.683-0.175,3.266-0.175,5.952c0,0.553,0.18,0.987,0.459,1.314C11.307,47.56,11.714,47.955,12.344,48.154z M14.922,41.927
		h3.193c-0.042,1.721-0.117,1.339-0.218,3.058c-1.751,0.064-1.359-0.11-3.06-0.52C14.842,42.918,14.871,43.472,14.922,41.927z"/>
	<path style="fill:#1D1D1B;" d="M25.998,49.204c2.898,0.916,3.835,1.273,6.86,0.95c0.502-0.054,0.91-0.247,1.225-0.523
		c0.809-0.224,1.51-0.863,1.576-1.928c0.175-2.799,0.337-3.497,0.35-6.302c0.002-0.471-0.129-0.855-0.337-1.162
		c-0.221-0.799-0.863-1.464-1.939-1.464h-7.177c-0.93,0-1.533,0.499-1.824,1.149c-0.152,0.268-0.255,0.582-0.276,0.952
		c-0.157,2.683-0.175,3.266-0.175,5.952c0,0.553,0.18,0.987,0.459,1.314C24.961,48.611,25.368,49.005,25.998,49.204z M28.576,42.977
		h3.193c-0.042,1.721-0.117,1.339-0.218,3.058c-1.751,0.064-1.359-0.11-3.06-0.52C28.497,43.968,28.525,44.523,28.576,42.977z"/>
	<path style="fill:#1D1D1B;" d="M39.652,50.254c2.898,0.916,3.835,1.273,6.86,0.95c0.502-0.054,0.91-0.247,1.225-0.523
		c0.809-0.224,1.51-0.863,1.576-1.928c0.175-2.799,0.337-3.497,0.35-6.302c0.002-0.471-0.129-0.855-0.337-1.162
		c-0.221-0.799-0.863-1.464-1.939-1.464h-7.177c-0.93,0-1.533,0.499-1.824,1.149c-0.152,0.268-0.255,0.582-0.276,0.952
		c-0.157,2.683-0.175,3.266-0.175,5.952c0,0.553,0.18,0.987,0.459,1.314C38.616,49.661,39.023,50.055,39.652,50.254z M42.231,44.027
		h3.193c-0.042,1.721-0.117,1.339-0.218,3.058c-1.751,0.064-1.359-0.11-3.06-0.52C42.151,45.018,42.18,45.573,42.231,44.027z"/>
	<path style="fill:#1D1D1B;" d="M53.307,51.305c2.898,0.916,3.835,1.273,6.86,0.95c0.502-0.054,0.91-0.247,1.225-0.523
		c0.809-0.224,1.51-0.863,1.576-1.928c0.175-2.799,0.337-3.497,0.35-6.302c0.002-0.471-0.129-0.855-0.337-1.162
		c-0.221-0.799-0.863-1.464-1.939-1.464h-7.177c-0.93,0-1.533,0.499-1.824,1.149c-0.152,0.268-0.255,0.583-0.276,0.952
		c-0.157,2.683-0.175,3.266-0.175,5.952c0,0.553,0.18,0.987,0.459,1.314C52.27,50.711,52.677,51.106,53.307,51.305z M55.885,45.078
		h3.193c-0.042,1.721-0.117,1.339-0.218,3.058c-1.751,0.064-1.359-0.11-3.06-0.52C55.805,46.069,55.834,46.623,55.885,45.078z"/>
	<path style="fill:#1D1D1B;" d="M66.961,52.355c2.898,0.916,3.835,1.273,6.86,0.95c0.502-0.054,0.91-0.247,1.225-0.523
		c0.809-0.224,1.51-0.863,1.576-1.928c0.175-2.799,0.337-3.497,0.35-6.302c0.002-0.471-0.129-0.855-0.337-1.162
		c-0.221-0.799-0.863-1.464-1.939-1.464h-7.177c-0.93,0-1.533,0.499-1.824,1.149c-0.152,0.268-0.255,0.582-0.276,0.952
		c-0.157,2.683-0.175,3.266-0.175,5.952c0,0.553,0.18,0.987,0.459,1.314C65.925,51.762,66.331,52.156,66.961,52.355z M69.54,46.128
		h3.193c-0.042,1.721-0.117,1.339-0.218,3.058c-1.751,0.064-1.359-0.11-3.06-0.52C69.46,47.119,69.488,47.674,69.54,46.128z"/>
	<path style="fill:#1D1D1B;" d="M12.344,60.758c2.898,0.916,3.835,1.273,6.86,0.95c0.502-0.054,0.91-0.247,1.225-0.523
		c0.809-0.224,1.51-0.863,1.576-1.928c0.175-2.799,0.337-3.497,0.35-6.302c0.002-0.471-0.129-0.855-0.337-1.162
		c-0.221-0.799-0.863-1.464-1.939-1.464h-7.177c-0.93,0-1.533,0.499-1.824,1.149c-0.152,0.268-0.255,0.582-0.276,0.952
		c-0.157,2.683-0.175,3.266-0.175,5.952c0,0.553,0.18,0.987,0.459,1.314C11.307,60.164,11.714,60.559,12.344,60.758z M14.922,54.531
		h3.193c-0.042,1.721-0.117,1.339-0.218,3.058c-1.751,0.064-1.359-0.11-3.06-0.52C14.842,55.522,14.871,56.076,14.922,54.531z"/>
	<path style="fill:#1D1D1B;" d="M14.229,65.133c-0.152,0.268-0.255,0.583-0.276,0.952c-0.157,2.683-0.175,3.266-0.175,5.952
		c0,0.553,0.18,0.987,0.459,1.314c0.222,0.468,0.629,0.863,1.258,1.062c2.898,0.916,3.835,1.273,6.86,0.95
		c0.502-0.054,0.91-0.247,1.225-0.523c0.809-0.224,1.51-0.863,1.576-1.928c0.175-2.799,0.337-3.497,0.35-6.302
		c0.002-0.471-0.129-0.855-0.337-1.162c-0.221-0.799-0.863-1.464-1.939-1.464h-7.177C15.123,63.984,14.52,64.482,14.229,65.133z
		 M18.073,68.185h3.193c-0.042,1.721-0.117,1.339-0.218,3.058c-1.751,0.064-1.359-0.11-3.06-0.52
		C17.993,69.176,18.022,69.731,18.073,68.185z"/>
	<path style="fill:#1D1D1B;" d="M25.998,61.808c2.898,0.916,3.835,1.273,6.86,0.95c0.502-0.054,0.91-0.247,1.225-0.523
		c0.809-0.224,1.51-0.863,1.576-1.928c0.175-2.799,0.337-3.497,0.35-6.302c0.002-0.471-0.129-0.855-0.337-1.162
		c-0.221-0.799-0.863-1.464-1.939-1.464h-7.177c-0.93,0-1.533,0.499-1.824,1.149c-0.152,0.268-0.255,0.583-0.276,0.952
		c-0.157,2.683-0.175,3.266-0.175,5.952c0,0.553,0.18,0.987,0.459,1.314C24.961,61.215,25.368,61.609,25.998,61.808z M28.576,55.581
		h3.193c-0.042,1.721-0.117,1.339-0.218,3.058c-1.751,0.064-1.359-0.11-3.06-0.52C28.497,56.572,28.525,57.127,28.576,55.581z"/>
	<path style="fill:#1D1D1B;" d="M39.652,62.858c2.898,0.916,3.835,1.273,6.86,0.95c0.502-0.054,0.91-0.247,1.225-0.523
		c0.809-0.224,1.51-0.863,1.576-1.928c0.175-2.799,0.337-3.497,0.35-6.302c0.002-0.471-0.129-0.855-0.337-1.162
		c-0.221-0.799-0.863-1.464-1.939-1.464h-7.177c-0.93,0-1.533,0.499-1.824,1.149c-0.152,0.268-0.255,0.583-0.276,0.952
		c-0.157,2.683-0.175,3.266-0.175,5.952c0,0.553,0.18,0.987,0.459,1.314C38.616,62.265,39.023,62.659,39.652,62.858z M42.231,56.631
		h3.193c-0.042,1.721-0.117,1.339-0.218,3.058c-1.751,0.064-1.359-0.11-3.06-0.52C42.151,57.622,42.18,58.177,42.231,56.631z"/>
	<path style="fill:#1D1D1B;" d="M53.307,63.909c2.898,0.916,3.835,1.273,6.86,0.95c0.502-0.054,0.91-0.247,1.225-0.523
		c0.809-0.224,1.51-0.863,1.576-1.928c0.175-2.799,0.337-3.497,0.35-6.302c0.002-0.471-0.129-0.855-0.337-1.162
		c-0.221-0.799-0.863-1.464-1.939-1.464h-7.177c-0.93,0-1.533,0.499-1.824,1.149c-0.152,0.268-0.255,0.582-0.276,0.952
		c-0.157,2.683-0.175,3.266-0.175,5.952c0,0.553,0.18,0.987,0.459,1.314C52.27,63.315,52.677,63.71,53.307,63.909z M55.885,57.682
		h3.193c-0.042,1.721-0.117,1.339-0.218,3.058c-1.751,0.064-1.359-0.11-3.06-0.52C55.805,58.673,55.834,59.227,55.885,57.682z"/>
	<path style="fill:#1D1D1B;" d="M66.961,64.959c2.898,0.916,3.835,1.273,6.86,0.95c0.502-0.054,0.91-0.247,1.225-0.523
		c0.809-0.224,1.51-0.863,1.576-1.928c0.175-2.799,0.337-3.497,0.35-6.302c0.002-0.471-0.129-0.855-0.337-1.162
		c-0.221-0.799-0.863-1.464-1.939-1.464h-7.177c-0.93,0-1.533,0.499-1.824,1.149c-0.152,0.268-0.255,0.582-0.276,0.952
		c-0.157,2.683-0.175,3.266-0.175,5.952c0,0.553,0.18,0.987,0.459,1.314C65.925,64.366,66.331,64.76,66.961,64.959z M69.54,58.732
		h3.193c-0.042,1.721-0.117,1.339-0.218,3.058c-1.751,0.064-1.359-0.11-3.06-0.52C69.46,59.723,69.488,60.278,69.54,58.732z"/>
	<path style="fill:#1D1D1B;" d="M83.099,67.135h-7.177c-0.93,0-1.533,0.499-1.824,1.149c-0.152,0.268-0.255,0.583-0.276,0.952
		c-0.157,2.683-0.175,3.266-0.175,5.952c0,0.553,0.18,0.987,0.459,1.314c0.222,0.468,0.629,0.863,1.258,1.062
		c2.898,0.916,3.835,1.273,6.86,0.95c0.502-0.054,0.91-0.247,1.225-0.523c0.809-0.224,1.51-0.863,1.576-1.928
		c0.175-2.799,0.337-3.497,0.35-6.302c0.002-0.471-0.129-0.855-0.337-1.162C84.817,67.799,84.175,67.135,83.099,67.135z
		 M80.917,74.394c-1.751,0.064-1.359-0.11-3.06-0.52c0.005-1.547,0.034-0.992,0.085-2.538h3.193
		C81.093,73.057,81.018,72.675,80.917,74.394z"/>
	<path style="fill:#1D1D1B;" d="M80.615,64.959c2.898,0.916,3.835,1.273,6.86,0.95c0.502-0.054,0.91-0.247,1.225-0.523
		c0.809-0.224,1.51-0.863,1.576-1.928c0.175-2.799,0.337-15.05,0.35-17.856c0.002-0.471-0.129-0.855-0.337-1.162
		c-0.221-0.799-0.863-1.464-1.939-1.464h-7.177c-0.93,0-1.533,0.499-1.824,1.149c-0.152,0.268-0.255,0.582-0.276,0.952
		c-0.157,2.683-0.175,14.819-0.175,17.506c0,0.553,0.18,0.987,0.459,1.314C79.579,64.366,79.986,64.76,80.615,64.959z
		 M83.194,47.178h3.193c-0.042,1.721-0.117,12.893-0.218,14.612c-1.751,0.064-1.359-0.11-3.06-0.52
		C83.114,59.723,83.143,48.724,83.194,47.178z"/>
	<path style="fill:#1D1D1B;" d="M69.445,67.135H31.808c-0.93,0-1.533,0.499-1.824,1.149c-0.152,0.268-0.255,0.583-0.276,0.952
		c-0.157,2.683-0.175,2.215-0.175,4.902c0,0.553,0.18,0.987,0.459,1.314c0.222,0.468,0.629,0.863,1.258,1.062
		c2.898,0.916,34.295,1.273,37.32,0.95c0.502-0.054,0.91-0.247,1.225-0.523c0.809-0.224,1.51-0.863,1.576-1.928
		c0.175-2.799,0.337-2.446,0.35-5.252c0.002-0.471-0.129-0.855-0.337-1.162C71.162,67.799,70.521,67.135,69.445,67.135z
		 M67.263,73.344c-1.751,0.064-31.819-0.11-33.52-0.52c0.005-1.547,0.034,0.058,0.085-1.488h33.653
		C67.439,73.057,67.364,71.625,67.263,73.344z"/>
</g>
</svg>
