<?xml version="1.0" encoding="utf-8"?>
<!-- Generator: Adobe Illustrator 16.0.0, SVG Export Plug-In . SVG Version: 6.00 Build 0)  -->
<!DOCTYPE svg PUBLIC "-//W3C//DTD SVG 1.1//EN" "http://www.w3.org/Graphics/SVG/1.1/DTD/svg11.dtd">
<svg version="1.1" id="Layer_1" xmlns="http://www.w3.org/2000/svg" xmlns:xlink="http://www.w3.org/1999/xlink" x="0px" y="0px"
	 width="50px" height="50px" viewBox="0 0 50 50" enable-background="new 0 0 50 50" xml:space="preserve">
<g>
	<path d="M25,12.949c-6.385,0-11.563,4.959-11.563,11.077c0,7.265,5.045,9.116,5.045,13.344c0,1.045,0.799,2.017,1.999,2.732
		c-0.251,0.208-0.391,0.437-0.391,0.677c0,0.322,0.253,0.623,0.688,0.881c-0.408,0.253-0.645,0.544-0.645,0.856
		c0,0.314,0.242,0.608,0.659,0.863c-0.426,0.256-0.674,0.554-0.674,0.872c0,0.387,0.366,0.743,0.978,1.032
		c-0.237,0.215-0.373,0.453-0.373,0.704c0,0.739,1.153,1.369,2.774,1.62c0.285,0.527,0.863,0.893,1.537,0.893
		c0.673,0,1.25-0.363,1.535-0.889c1.636-0.248,2.802-0.88,2.802-1.623c0-0.247-0.13-0.482-0.362-0.694
		c0.624-0.291,0.998-0.651,0.998-1.042c0-0.315-0.242-0.61-0.66-0.864c0.425-0.256,0.674-0.553,0.674-0.871
		c0-0.322-0.254-0.623-0.689-0.881c0.41-0.252,0.646-0.544,0.646-0.856c0-0.249-0.152-0.484-0.421-0.698
		c1.181-0.713,1.966-1.675,1.966-2.711c0-4.228,5.039-6.08,5.039-13.344C36.563,17.908,31.386,12.949,25,12.949z M31.038,30.881
		c-1.153,1.692-2.456,3.603-2.536,6.232c-0.395,0.442-1.808,1.159-3.498,1.159c-1.691,0-3.105-0.718-3.5-1.16
		c-0.08-2.63-1.385-4.541-2.539-6.233c-1.287-1.886-2.502-3.667-2.502-6.854c0-4.439,3.83-8.051,8.537-8.051
		s8.537,3.612,8.537,8.051C33.537,27.213,32.323,28.995,31.038,30.881z"/>
	<path d="M25,9.064c0.832,0,1.513-0.9,1.513-2V3.5c0-1.1-0.681-2-1.513-2s-1.513,0.9-1.513,2v3.564
		C23.487,8.165,24.168,9.064,25,9.064z"/>
	<path d="M17.247,11.142c0.721-0.416,0.859-1.536,0.31-2.488l-1.781-3.087c-0.55-0.953-1.59-1.392-2.311-0.976
		s-0.86,1.536-0.311,2.488l1.783,3.087C15.487,11.119,16.526,11.558,17.247,11.142z"/>
	<path d="M10.595,14.507L7.51,12.725c-0.953-0.55-2.073-0.411-2.489,0.31s0.022,1.76,0.976,2.31l3.086,1.782
		c0.953,0.55,2.073,0.411,2.488-0.31C11.986,16.096,11.548,15.057,10.595,14.507z"/>
	<path d="M44.004,33.795l-3.086-1.782c-0.953-0.55-2.073-0.411-2.488,0.31c-0.416,0.721,0.022,1.76,0.976,2.31l3.085,1.782
		c0.953,0.55,2.073,0.411,2.489-0.31S44.957,34.345,44.004,33.795z"/>
	<path d="M9.494,24.57c0-0.833-0.9-1.513-2-1.513H3.93c-1.1,0-2,0.681-2,1.513c0,0.832,0.9,1.513,2,1.513h3.564
		C8.594,26.083,9.494,25.402,9.494,24.57z"/>
	<path d="M46.07,23.057h-3.564c-1.1,0-2,0.681-2,1.513c0,0.832,0.9,1.513,2,1.513h3.564c1.1,0,2-0.681,2-1.513
		C48.07,23.738,47.17,23.057,46.07,23.057z"/>
	<path d="M9.082,32.013l-3.086,1.782c-0.953,0.55-1.392,1.589-0.976,2.31s1.536,0.86,2.489,0.31l3.085-1.782
		c0.953-0.55,1.392-1.589,0.976-2.31C11.155,31.603,10.035,31.463,9.082,32.013z"/>
	<path d="M40.918,17.127l3.086-1.782c0.953-0.55,1.392-1.589,0.976-2.31s-1.536-0.86-2.489-0.31l-3.085,1.782
		c-0.953,0.55-1.392,1.589-0.976,2.31C38.845,17.538,39.965,17.677,40.918,17.127z"/>
	<path d="M36.535,4.59c-0.721-0.416-1.761,0.023-2.311,0.976l-1.781,3.087c-0.55,0.953-0.411,2.072,0.31,2.488
		s1.76-0.023,2.31-0.976l1.783-3.087C37.396,6.126,37.256,5.006,36.535,4.59z"/>
</g>
</svg>
